<mxfile host="app.diagrams.net" agent="Mozilla/5.0 (Windows NT 10.0; Win64; x64) AppleWebKit/537.36 (KHTML, like Gecko) Chrome/129.0.0.0 Safari/537.36" version="24.7.17">
  <diagram name="Page-1" id="y_tXGgMSB99DgmCbyJCs">
    <mxGraphModel dx="1034" dy="446" grid="1" gridSize="10" guides="1" tooltips="1" connect="1" arrows="1" fold="1" page="1" pageScale="1" pageWidth="850" pageHeight="1100" math="0" shadow="0">
      <root>
        <mxCell id="0" />
        <mxCell id="1" parent="0" />
        <mxCell id="MD5T-KzKf93m2ghhRFy--3" style="edgeStyle=orthogonalEdgeStyle;rounded=0;orthogonalLoop=1;jettySize=auto;html=1;" edge="1" parent="1" source="MD5T-KzKf93m2ghhRFy--1" target="MD5T-KzKf93m2ghhRFy--2">
          <mxGeometry relative="1" as="geometry" />
        </mxCell>
        <mxCell id="MD5T-KzKf93m2ghhRFy--1" value="Customer" style="rounded=0;whiteSpace=wrap;html=1;" vertex="1" parent="1">
          <mxGeometry x="10" width="120" height="60" as="geometry" />
        </mxCell>
        <mxCell id="MD5T-KzKf93m2ghhRFy--7" style="edgeStyle=orthogonalEdgeStyle;rounded=0;orthogonalLoop=1;jettySize=auto;html=1;exitX=0.5;exitY=1;exitDx=0;exitDy=0;" edge="1" parent="1" source="MD5T-KzKf93m2ghhRFy--2" target="MD5T-KzKf93m2ghhRFy--6">
          <mxGeometry relative="1" as="geometry" />
        </mxCell>
        <mxCell id="MD5T-KzKf93m2ghhRFy--11" style="edgeStyle=orthogonalEdgeStyle;rounded=0;orthogonalLoop=1;jettySize=auto;html=1;" edge="1" parent="1" source="MD5T-KzKf93m2ghhRFy--2" target="MD5T-KzKf93m2ghhRFy--10">
          <mxGeometry relative="1" as="geometry" />
        </mxCell>
        <mxCell id="MD5T-KzKf93m2ghhRFy--2" value="Home&amp;nbsp;&lt;div&gt;Menu&lt;/div&gt;" style="ellipse;whiteSpace=wrap;html=1;aspect=fixed;" vertex="1" parent="1">
          <mxGeometry x="30" y="140" width="80" height="80" as="geometry" />
        </mxCell>
        <mxCell id="MD5T-KzKf93m2ghhRFy--6" value="Input Number" style="ellipse;whiteSpace=wrap;html=1;aspect=fixed;" vertex="1" parent="1">
          <mxGeometry x="30" y="290" width="80" height="80" as="geometry" />
        </mxCell>
        <mxCell id="MD5T-KzKf93m2ghhRFy--9" style="edgeStyle=orthogonalEdgeStyle;rounded=0;orthogonalLoop=1;jettySize=auto;html=1;" edge="1" parent="1" source="MD5T-KzKf93m2ghhRFy--8" target="MD5T-KzKf93m2ghhRFy--6">
          <mxGeometry relative="1" as="geometry" />
        </mxCell>
        <mxCell id="MD5T-KzKf93m2ghhRFy--8" value="Number Telp" style="rounded=0;whiteSpace=wrap;html=1;" vertex="1" parent="1">
          <mxGeometry x="10" y="440" width="120" height="60" as="geometry" />
        </mxCell>
        <mxCell id="MD5T-KzKf93m2ghhRFy--13" style="edgeStyle=orthogonalEdgeStyle;rounded=0;orthogonalLoop=1;jettySize=auto;html=1;exitX=0.5;exitY=0;exitDx=0;exitDy=0;" edge="1" parent="1" source="MD5T-KzKf93m2ghhRFy--10" target="MD5T-KzKf93m2ghhRFy--12">
          <mxGeometry relative="1" as="geometry" />
        </mxCell>
        <mxCell id="MD5T-KzKf93m2ghhRFy--15" style="edgeStyle=orthogonalEdgeStyle;rounded=0;orthogonalLoop=1;jettySize=auto;html=1;" edge="1" parent="1" source="MD5T-KzKf93m2ghhRFy--10" target="MD5T-KzKf93m2ghhRFy--14">
          <mxGeometry relative="1" as="geometry" />
        </mxCell>
        <mxCell id="MD5T-KzKf93m2ghhRFy--10" value="Confirmation" style="ellipse;whiteSpace=wrap;html=1;aspect=fixed;" vertex="1" parent="1">
          <mxGeometry x="300" y="140" width="80" height="80" as="geometry" />
        </mxCell>
        <mxCell id="MD5T-KzKf93m2ghhRFy--20" style="edgeStyle=orthogonalEdgeStyle;rounded=0;orthogonalLoop=1;jettySize=auto;html=1;exitX=1;exitY=0.5;exitDx=0;exitDy=0;entryX=0.5;entryY=0;entryDx=0;entryDy=0;" edge="1" parent="1" source="MD5T-KzKf93m2ghhRFy--12" target="MD5T-KzKf93m2ghhRFy--18">
          <mxGeometry relative="1" as="geometry" />
        </mxCell>
        <mxCell id="MD5T-KzKf93m2ghhRFy--12" value="Send Message to receiver" style="ellipse;whiteSpace=wrap;html=1;aspect=fixed;" vertex="1" parent="1">
          <mxGeometry x="300" width="80" height="80" as="geometry" />
        </mxCell>
        <mxCell id="MD5T-KzKf93m2ghhRFy--19" style="edgeStyle=orthogonalEdgeStyle;rounded=0;orthogonalLoop=1;jettySize=auto;html=1;entryX=0.5;entryY=1;entryDx=0;entryDy=0;" edge="1" parent="1" source="MD5T-KzKf93m2ghhRFy--14" target="MD5T-KzKf93m2ghhRFy--18">
          <mxGeometry relative="1" as="geometry" />
        </mxCell>
        <mxCell id="MD5T-KzKf93m2ghhRFy--14" value="Send Mesage To User" style="ellipse;whiteSpace=wrap;html=1;aspect=fixed;" vertex="1" parent="1">
          <mxGeometry x="300" y="290" width="80" height="80" as="geometry" />
        </mxCell>
        <mxCell id="MD5T-KzKf93m2ghhRFy--17" style="edgeStyle=orthogonalEdgeStyle;rounded=0;orthogonalLoop=1;jettySize=auto;html=1;" edge="1" parent="1" source="MD5T-KzKf93m2ghhRFy--16" target="MD5T-KzKf93m2ghhRFy--14">
          <mxGeometry relative="1" as="geometry" />
        </mxCell>
        <mxCell id="MD5T-KzKf93m2ghhRFy--16" value="Input Credit" style="rounded=0;whiteSpace=wrap;html=1;" vertex="1" parent="1">
          <mxGeometry x="280" y="440" width="120" height="60" as="geometry" />
        </mxCell>
        <mxCell id="MD5T-KzKf93m2ghhRFy--18" value="Receiver Send Credit" style="ellipse;whiteSpace=wrap;html=1;aspect=fixed;" vertex="1" parent="1">
          <mxGeometry x="590" y="140" width="80" height="80" as="geometry" />
        </mxCell>
        <mxCell id="MD5T-KzKf93m2ghhRFy--21" value="Dial *858#" style="text;html=1;align=center;verticalAlign=middle;whiteSpace=wrap;rounded=0;" vertex="1" parent="1">
          <mxGeometry x="80" y="80" width="60" height="30" as="geometry" />
        </mxCell>
        <mxCell id="MD5T-KzKf93m2ghhRFy--22" value="Input Menu&lt;div&gt;2. Minta Pulsa&lt;/div&gt;" style="text;html=1;align=center;verticalAlign=middle;whiteSpace=wrap;rounded=0;" vertex="1" parent="1">
          <mxGeometry x="90" y="240" width="80" height="30" as="geometry" />
        </mxCell>
        <mxCell id="MD5T-KzKf93m2ghhRFy--23" value="Confirm&lt;div&gt;Yes or No&lt;/div&gt;" style="text;html=1;align=center;verticalAlign=middle;whiteSpace=wrap;rounded=0;" vertex="1" parent="1">
          <mxGeometry x="180" y="140" width="60" height="30" as="geometry" />
        </mxCell>
        <mxCell id="MD5T-KzKf93m2ghhRFy--24" value="Assign Receiver Number" style="text;html=1;align=center;verticalAlign=middle;whiteSpace=wrap;rounded=0;" vertex="1" parent="1">
          <mxGeometry x="80" y="380" width="90" height="30" as="geometry" />
        </mxCell>
        <mxCell id="MD5T-KzKf93m2ghhRFy--25" value="Yes Signal" style="text;html=1;align=center;verticalAlign=middle;whiteSpace=wrap;rounded=0;" vertex="1" parent="1">
          <mxGeometry x="350" y="90" width="60" height="30" as="geometry" />
        </mxCell>
        <mxCell id="MD5T-KzKf93m2ghhRFy--26" value="Yes Signal" style="text;html=1;align=center;verticalAlign=middle;whiteSpace=wrap;rounded=0;" vertex="1" parent="1">
          <mxGeometry x="350" y="240" width="60" height="30" as="geometry" />
        </mxCell>
        <mxCell id="MD5T-KzKf93m2ghhRFy--27" value="Information Message" style="text;html=1;align=center;verticalAlign=middle;whiteSpace=wrap;rounded=0;" vertex="1" parent="1">
          <mxGeometry x="460" y="290" width="60" height="30" as="geometry" />
        </mxCell>
        <mxCell id="MD5T-KzKf93m2ghhRFy--28" value="Assign Credit" style="text;html=1;align=center;verticalAlign=middle;whiteSpace=wrap;rounded=0;" vertex="1" parent="1">
          <mxGeometry x="360" y="390" width="60" height="30" as="geometry" />
        </mxCell>
      </root>
    </mxGraphModel>
  </diagram>
</mxfile>
